#define power_bat2_width 16
#define power_bat2_height 16
static unsigned char power_bat2_bits[] = {
   0x00, 0x00, 0x00, 0x00, 0x00, 0x00, 0x00, 0x00, 0xfc, 0x1f, 0x02, 0x18,
   0x02, 0x78, 0x1e, 0x78, 0xfe, 0x78, 0xfe, 0x7b, 0xfe, 0x1f, 0xfc, 0x1f,
   0x00, 0x00, 0x00, 0x00, 0x00, 0x00, 0x00, 0x00 };
